# xmcd
#
# Track frame offsets:
#	150
#	29925
#	50725
#
# Disc length: 910 seconds
#
# Revision: 0
# Processed by: cddbd v1.5.1PL0 Copyright (c) Steve Scherf et al.
# Submitted via: audiograbber 1.82.01
#
DISCID=2a038c03
DTITLE=Rodney Franklin - Gotta Give It Up
DYEAR=1991
DGENRE=Disco Soul
TTITLE0=Gotta Give It Up ( Club Dub )
TTITLE1=Malibu Shuffle
TTITLE2=Gotta Give It Up ( Remix )
EXTD=
EXTT0=
EXTT1=
EXTT2=
PLAYORDER=
